<?xml version="1.0" encoding="utf-8"?>
<!-- Generator: Adobe Illustrator 24.1.2, SVG Export Plug-In . SVG Version: 6.00 Build 0)  -->
<svg version="1.1" id="Layer_1" xmlns="http://www.w3.org/2000/svg" xmlns:xlink="http://www.w3.org/1999/xlink" x="0px" y="0px"
	 viewBox="0 0 32 32" style="enable-background:new 0 0 32 32;" xml:space="preserve">
<style type="text/css">
	.st0{fill-rule:evenodd;clip-rule:evenodd;fill:#F4828B;}
</style>
<path class="st0" d="M32,25.6c0,0.7-0.45,1.28-1.07,1.5v1.8C31.55,29.12,32,29.7,32,30.4c0,0.88-0.72,1.6-1.6,1.6
	c-0.7,0-1.28-0.45-1.5-1.07h-1.8C26.88,31.55,26.3,32,25.6,32c-0.7,0-1.28-0.45-1.5-1.07h-1.8C22.08,31.55,21.5,32,20.8,32
	c-0.7,0-1.28-0.45-1.5-1.07h-1.8C17.28,31.55,16.7,32,16,32c-0.7,0-1.28-0.45-1.5-1.07h-1.8C12.48,31.55,11.9,32,11.2,32
	c-0.7,0-1.28-0.45-1.5-1.07H7.9C7.68,31.55,7.1,32,6.4,32c-0.7,0-1.28-0.45-1.5-1.07H3.1C2.88,31.55,2.3,32,1.6,32
	C0.72,32,0,31.28,0,30.4c0-0.7,0.45-1.28,1.07-1.5v-1.8C0.45,26.88,0,26.3,0,25.6c0-0.7,0.45-1.28,1.07-1.5v-1.8
	C0.45,22.08,0,21.5,0,20.8c0-0.7,0.45-1.28,1.07-1.5v-1.8C0.45,17.28,0,16.7,0,16c0-0.7,0.45-1.28,1.07-1.5v-1.8
	C0.45,12.48,0,11.9,0,11.2c0-0.7,0.45-1.28,1.07-1.5V7.9C0.45,7.68,0,7.1,0,6.4c0-0.7,0.45-1.28,1.07-1.5V3.1C0.45,2.88,0,2.3,0,1.6
	C0,0.72,0.72,0,1.6,0c0.7,0,1.28,0.45,1.5,1.07h1.8C5.12,0.45,5.7,0,6.4,0c0.7,0,1.28,0.45,1.5,1.07h1.8C9.92,0.45,10.5,0,11.2,0
	c0.7,0,1.28,0.45,1.5,1.07h1.8C14.72,0.45,15.3,0,16,0c0.7,0,1.28,0.45,1.5,1.07h1.8C19.52,0.45,20.1,0,20.8,0
	c0.7,0,1.28,0.45,1.5,1.07h1.8C24.32,0.45,24.9,0,25.6,0c0.7,0,1.28,0.45,1.5,1.07h1.8C29.12,0.45,29.7,0,30.4,0
	C31.28,0,32,0.72,32,1.6c0,0.69-0.45,1.28-1.07,1.5v1.8C31.55,5.12,32,5.7,32,6.4c0,0.7-0.45,1.28-1.07,1.5v1.8
	C31.55,9.92,32,10.5,32,11.2c0,0.7-0.45,1.28-1.07,1.5v1.8C31.55,14.72,32,15.3,32,16c0,0.7-0.45,1.28-1.07,1.5v1.8
	c0.62,0.22,1.07,0.81,1.07,1.5c0,0.69-0.45,1.28-1.07,1.5v1.8C31.55,24.32,32,24.9,32,25.6z M27.73,4.27H4.27v23.47h23.47V4.27z
	 M13.87,21.33l7.47-9.07l4.8,7.47v6.4H5.87l6.4-6.4L13.87,21.33z M10.67,13.87c-1.77,0-3.2-1.43-3.2-3.2c0-1.77,1.43-3.2,3.2-3.2
	c1.77,0,3.2,1.43,3.2,3.2C13.87,12.43,12.43,13.87,10.67,13.87z"/>
</svg>
