<?xml version="1.0" encoding="utf-8"?>
<!-- Generator: Adobe Illustrator 24.1.2, SVG Export Plug-In . SVG Version: 6.00 Build 0)  -->
<svg version="1.1" id="Layer_1" xmlns="http://www.w3.org/2000/svg" xmlns:xlink="http://www.w3.org/1999/xlink" x="0px" y="0px"
	 viewBox="0 0 32 23" style="enable-background:new 0 0 32 23;" xml:space="preserve">
<style type="text/css">
	.st0{fill-rule:evenodd;clip-rule:evenodd;fill:#FFFFFF;}
</style>
<path class="st0" d="M31.97,21.77C31.97,21.77,31.98,21.77,31.97,21.77c0,0.55-0.45,0.99-0.99,0.99h-7.41
	c0.56-0.12,0.97-0.61,0.97-1.21c0,0,0,0,0,0h0c0,0,0-4.5-3.3-6.14c-1.41-0.7-1.5-0.57-2.21-0.73l0.02-1.95c0,0-0.77-0.59-1.01-2.43
	c-0.48,0.14-0.64-0.56-0.67-1.01c-0.03-0.43-0.28-1.78,0.31-1.66c-0.12-0.9-0.21-1.72-0.16-2.15c0.15-1.51,1.61-3.09,3.86-3.21
	c2.65,0.11,3.7,1.69,3.84,3.21c0.04,0.43-0.05,1.25-0.17,2.15c0.59-0.12,0.33,1.23,0.3,1.66c-0.03,0.45-0.19,1.15-0.67,1.01
	c-0.24,1.84-1.01,2.43-1.01,2.43l0.02,1.95c0,0,0.49,0.28,2.55,1.13c2.06,0.85,1.41,0.21,3.09,1.05
	C31.98,18.15,31.98,21.77,31.97,21.77L31.97,21.77z M17.05,15.1c2.26,0.93,1.55,0.23,3.4,1.15c2.91,1.44,2.91,5.42,2.91,5.42h0
	c0,0,0,0,0,0c0,0.6-0.49,1.09-1.09,1.09H1.12c-0.6,0-1.09-0.49-1.09-1.09c0,0,0,0,0,0h0c0,0,0-3.97,2.91-5.42
	c1.84-0.91,1.13-0.17,3.4-1.11c2.26-0.93,2.8-1.26,2.8-1.26l0.02-2.15c0,0-0.85-0.65-1.11-2.67C7.51,9.22,7.33,8.44,7.3,7.95
	C7.28,7.48,7,5.99,7.64,6.13C7.51,5.13,7.42,4.24,7.46,3.77c0.16-1.66,1.77-3.4,4.24-3.53c2.91,0.13,4.06,1.86,4.23,3.53
	c0.05,0.47-0.06,1.37-0.19,2.36c0.65-0.13,0.37,1.35,0.33,1.83c-0.03,0.49-0.21,1.26-0.74,1.11c-0.26,2.03-1.11,2.67-1.11,2.67
	l0.02,2.14C14.25,13.87,14.79,14.17,17.05,15.1z"/>
</svg>
