<?xml version="1.0" encoding="utf-8"?>
<!-- Generator: Adobe Illustrator 24.1.2, SVG Export Plug-In . SVG Version: 6.00 Build 0)  -->
<svg version="1.1" id="Layer_1" xmlns="http://www.w3.org/2000/svg" xmlns:xlink="http://www.w3.org/1999/xlink" x="0px" y="0px"
	 viewBox="0 0 20 15" style="enable-background:new 0 0 20 15;" xml:space="preserve">
<style type="text/css">
	.st0{fill-rule:evenodd;clip-rule:evenodd;fill:#95E1D3;}
</style>
<path class="st0" d="M19.72,7.32c0,0.01,0,0.02,0,0.02v0.01c0,0.01,0,0.01,0,0.02c0,0.01,0,0.01,0,0.02l0,0
	c-0.02,0.15-0.09,0.3-0.2,0.41c-0.22,0.25-0.44,0.48-0.66,0.71c-1.21,1.23-2.6,2.33-4.12,3.12c-0.97,0.51-2.01,0.92-3.09,1.12
	c-1.18,0.22-2.37,0.21-3.55-0.05c-2.04-0.44-3.89-1.55-5.5-2.86C1.84,9.22,1.1,8.56,0.48,7.8c-0.27-0.33-0.27-0.72,0-1.05
	c0.21-0.24,0.43-0.47,0.65-0.7c1.21-1.23,2.6-2.33,4.12-3.12c0.97-0.51,2.01-0.92,3.09-1.12c1.18-0.22,2.37-0.21,3.55,0.05
	c2.04,0.44,3.89,1.55,5.5,2.86C18.14,5.33,18.88,6,19.5,6.75c0.11,0.11,0.18,0.26,0.2,0.41l0,0c0,0.01,0,0.01,0,0.02
	c0,0.01,0,0.01,0,0.02v0.01c0,0.01,0,0.02,0,0.02c0,0.01,0,0.02,0,0.04C19.72,7.29,19.72,7.31,19.72,7.32z M10,3.48
	c-2.01,0-3.65,1.63-3.65,3.64s1.63,3.64,3.65,3.64c2.01,0,3.64-1.63,3.64-3.64C13.65,5.12,12.01,3.48,10,3.48z M10,8.95
	c-1.01,0-1.82-0.82-1.82-1.82S8.99,5.31,10,5.31s1.82,0.82,1.82,1.82S11.01,8.95,10,8.95z"/>
</svg>
