<?xml version="1.0" encoding="utf-8"?>
<!-- Generator: Adobe Illustrator 24.1.2, SVG Export Plug-In . SVG Version: 6.00 Build 0)  -->
<svg version="1.1" id="Layer_1" xmlns="http://www.w3.org/2000/svg" xmlns:xlink="http://www.w3.org/1999/xlink" x="0px" y="0px"
	 viewBox="0 0 20 15" style="enable-background:new 0 0 20 15;" xml:space="preserve">
<style type="text/css">
	.st0{fill-rule:evenodd;clip-rule:evenodd;fill:#95E1D3;}
</style>
<path class="st0" d="M10.43,12.61c-0.57,0-1.13-0.17-1.68-0.24c-2.19,2.77-5.65,2.23-5.65,2.23c2.44-1.16,2.39-3.07,1.96-3.32
	c-1.92-1.13-3.07-2.84-3.07-4.76c0-3.39,3.73-6.14,8.43-6.14c4.71,0,7.58,2.75,7.58,6.14C18.01,9.9,15.14,12.61,10.43,12.61z
	 M6.25,5.13c-0.83,0-1.5,0.67-1.5,1.5s0.67,1.5,1.5,1.5c0.83,0,1.5-0.67,1.5-1.5S7.08,5.13,6.25,5.13z M10,5.13
	c-0.83,0-1.5,0.67-1.5,1.5s0.67,1.5,1.5,1.5c0.83,0,1.5-0.67,1.5-1.5S10.83,5.13,10,5.13z M13.75,5.13c-0.83,0-1.5,0.67-1.5,1.5
	s0.67,1.5,1.5,1.5c0.83,0,1.5-0.67,1.5-1.5S14.58,5.13,13.75,5.13z"/>
</svg>
