<?xml version="1.0" encoding="utf-8"?>
<!-- Generator: Adobe Illustrator 24.1.2, SVG Export Plug-In . SVG Version: 6.00 Build 0)  -->
<svg version="1.1" id="Layer_1" xmlns="http://www.w3.org/2000/svg" xmlns:xlink="http://www.w3.org/1999/xlink" x="0px" y="0px"
	 viewBox="0 0 18 18" style="enable-background:new 0 0 18 18;" xml:space="preserve">
<style type="text/css">
	.st0{fill-rule:evenodd;clip-rule:evenodd;fill:#FFFFFF;}
</style>
<path class="st0" d="M17.73,5L17.73,5l-2.47,5.5h0c-0.12,0.27-0.39,0.46-0.7,0.48l0,0l-7.13,0.47l0.41,1.18h7.76
	c0.91,0,1.65,0.74,1.65,1.65c0,0.91-0.74,1.65-1.65,1.65c-0.91,0-1.65-0.74-1.65-1.65h-7.7c0,0.91-0.74,1.65-1.65,1.65
	s-1.65-0.74-1.65-1.65c0-0.91,0.74-1.65,1.65-1.65h1.49L2.91,3.56H1.02c-0.46,0-0.82-0.37-0.82-0.82s0.37-0.82,0.82-0.82H3.5
	c0.36,0,0.66,0.23,0.78,0.55l0,0l0.48,1.37h12.22c0.46,0,0.82,0.37,0.82,0.82C17.8,4.78,17.77,4.89,17.73,5z M5.34,5.48l1.53,4.36
	l7.09-0.47l1.75-3.88H5.34z"/>
</svg>
