<?xml version="1.0" encoding="utf-8"?>
<!-- Generator: Adobe Illustrator 24.1.2, SVG Export Plug-In . SVG Version: 6.00 Build 0)  -->
<svg version="1.1" id="Layer_1" xmlns="http://www.w3.org/2000/svg" xmlns:xlink="http://www.w3.org/1999/xlink" x="0px" y="0px"
	 viewBox="0 0 20 26" style="enable-background:new 0 0 20 26;" xml:space="preserve">
<style type="text/css">
	.st0{fill-rule:evenodd;clip-rule:evenodd;fill:#F38181;}
</style>
<path class="st0" d="M10,25.8c0,0-9.6-10.7-9.6-16c0-5.3,4.3-9.6,9.6-9.6s9.6,4.3,9.6,9.6C19.6,15.1,10,25.8,10,25.8z M10,3.4
	c-3.53,0-6.4,2.87-6.4,6.4c0,3.53,2.87,6.4,6.4,6.4s6.4-2.87,6.4-6.4C16.4,6.27,13.53,3.4,10,3.4z M10,13c-1.77,0-3.2-1.43-3.2-3.2
	c0-1.77,1.43-3.2,3.2-3.2s3.2,1.43,3.2,3.2C13.2,11.57,11.77,13,10,13z"/>
</svg>
