<?xml version="1.0" encoding="utf-8"?>
<!-- Generator: Adobe Illustrator 24.1.2, SVG Export Plug-In . SVG Version: 6.00 Build 0)  -->
<svg version="1.1" id="Layer_1" xmlns="http://www.w3.org/2000/svg" xmlns:xlink="http://www.w3.org/1999/xlink" x="0px" y="0px"
	 viewBox="0 0 34 32" style="enable-background:new 0 0 34 32;" xml:space="preserve">
<style type="text/css">
	.st0{fill-rule:evenodd;clip-rule:evenodd;fill:#95E1D3;}
</style>
<path class="st0" d="M31.56,32h-29c-0.83,0-1.5-0.67-1.5-1.5v-29c0-0.83,0.67-1.5,1.5-1.5h29c0.83,0,1.5,0.67,1.5,1.5v29
	C33.06,31.33,32.39,32,31.56,32z M30.06,3h-26v26h26V3z M6.28,16.24L6.28,16.24l4-2.5l0,0c0.23-0.14,0.5-0.22,0.78-0.22
	c0.31,0,0.6,0.09,0.84,0.26l0.01-0.01l6.63,4.42l7.64-5.39c0.25-0.18,0.55-0.29,0.89-0.29c0.83,0,1.5,0.67,1.5,1.5
	c0,0.5-0.25,0.94-0.62,1.22l0,0l-8.5,6l0,0c-0.25,0.18-0.55,0.28-0.88,0.28c-0.32,0-0.62-0.1-0.86-0.27l-6.66-4.44l-3.14,1.96
	c-0.24,0.17-0.53,0.26-0.85,0.26c-0.83,0-1.5-0.67-1.5-1.5C5.56,16.98,5.85,16.5,6.28,16.24z"/>
</svg>
