<?xml version="1.0" encoding="utf-8"?>
<!-- Generator: Adobe Illustrator 24.1.2, SVG Export Plug-In . SVG Version: 6.00 Build 0)  -->
<svg version="1.1" id="Layer_1" xmlns="http://www.w3.org/2000/svg" xmlns:xlink="http://www.w3.org/1999/xlink" x="0px" y="0px"
	 viewBox="0 0 34 32" style="enable-background:new 0 0 34 32;" xml:space="preserve">
<style type="text/css">
	.st0{fill-rule:evenodd;clip-rule:evenodd;fill:#95E1D3;}
</style>
<path class="st0" d="M17.06,32c-8.84,0-16-7.16-16-16c0-8.84,7.16-16,16-16s16,7.16,16,16C33.07,24.84,25.9,32,17.06,32z M17.06,3
	c-7.18,0-13,5.82-13,13s5.82,13,13,13s13-5.82,13-13S24.24,3,17.06,3z M17.06,25.5c-5.25,0-9.5-4.25-9.5-9.5
	c0-5.25,4.25-9.5,9.5-9.5c5.25,0,9.5,4.25,9.5,9.5C26.56,21.25,22.31,25.5,17.06,25.5z M17.06,9.5c-3.59,0-6.5,2.91-6.5,6.5
	s2.91,6.5,6.5,6.5c3.59,0,6.5-2.91,6.5-6.5S20.65,9.5,17.06,9.5z M17.06,19c-1.66,0-3-1.34-3-3c0-1.66,1.34-3,3-3s3,1.34,3,3
	C20.06,17.66,18.72,19,17.06,19z"/>
</svg>
