<?xml version="1.0" encoding="utf-8"?>
<!-- Generator: Adobe Illustrator 24.1.2, SVG Export Plug-In . SVG Version: 6.00 Build 0)  -->
<svg version="1.1" id="Layer_1" xmlns="http://www.w3.org/2000/svg" xmlns:xlink="http://www.w3.org/1999/xlink" x="0px" y="0px"
	 viewBox="0 0 34 32" style="enable-background:new 0 0 34 32;" xml:space="preserve">
<style type="text/css">
	.st0{fill-rule:evenodd;clip-rule:evenodd;fill:#95E1D3;}
</style>
<path class="st0" d="M33.07,16.75c0,0.83-0.67,1.5-1.5,1.5c-0.4,0-0.75-0.16-1.02-0.41l0,0L17.1,4.41l0,0l-0.04-0.04v0L3.62,17.82
	l0,0c-0.27,0.27-0.64,0.43-1.05,0.43c-0.83,0-1.5-0.67-1.5-1.5c0-0.42,0.18-0.81,0.46-1.08L15.98,1.21
	c0.27-0.28,0.66-0.46,1.08-0.46l0,0l0,0c0,0,0,0,0,0c0.03,0,0.05,0,0.08,0c0,0,0.01,0,0.01,0c0.02,0,0.05,0,0.07,0.01c0,0,0,0,0,0
	c0.37,0.04,0.69,0.21,0.93,0.47l0,0l5.9,5.9V5.75c0-0.83,0.67-1.5,1.5-1.5c0.83,0,1.5,0.67,1.5,1.5v4.38l5.6,5.6l0,0
	C32.91,16,33.07,16.35,33.07,16.75z M30.07,19.25v4.5v2v4c0,0.83-0.67,1.5-1.5,1.5h-3v-12h-6v12h-14c-0.83,0-1.5-0.67-1.5-1.5v-4v-2
	v-4.5l13-13L30.07,19.25z M14.57,19.25h-6v6h6V19.25z"/>
</svg>
