<?xml version="1.0" encoding="utf-8"?>
<!-- Generator: Adobe Illustrator 24.1.2, SVG Export Plug-In . SVG Version: 6.00 Build 0)  -->
<svg version="1.1" id="Layer_1" xmlns="http://www.w3.org/2000/svg" xmlns:xlink="http://www.w3.org/1999/xlink" x="0px" y="0px"
	 viewBox="0 0 34 32" style="enable-background:new 0 0 34 32;" xml:space="preserve">
<style type="text/css">
	.st0{fill-rule:evenodd;clip-rule:evenodd;fill:#95E1D3;}
</style>
<path class="st0" d="M32.13,25.89l-14.47,5.99C17.48,31.96,17.28,32,17.07,32s-0.41-0.04-0.59-0.12L2,25.89
	c-0.55-0.22-0.94-0.76-0.94-1.39v-23c0-0.83,0.67-1.5,1.5-1.5c0.2,0,0.4,0.04,0.57,0.11h0l0,0c0,0,0.01,0,0.01,0.01l13.91,5.76
	l13.91-5.76c0,0,0.01,0,0.01-0.01l0,0l0,0C31.17,0.04,31.36,0,31.57,0c0.83,0,1.5,0.67,1.5,1.5v23
	C33.07,25.13,32.68,25.67,32.13,25.89z M15.57,8.5L4.06,3.74V23.5l11.5,4.76V8.5z M30.07,3.74L18.56,8.5v19.75l11.5-4.76V3.74z
	 M20.94,10.63l5.5-2.5l0,0C26.63,8.05,26.84,8,27.06,8c0.83,0,1.5,0.67,1.5,1.5c0,0.61-0.36,1.13-0.88,1.37l0,0l-5.5,2.5l0,0
	c-0.19,0.09-0.4,0.13-0.62,0.13c-0.83,0-1.5-0.67-1.5-1.5C20.06,11.39,20.43,10.87,20.94,10.63z M20.94,16.13L20.94,16.13l5.5-2.5
	l0,0c0.19-0.09,0.4-0.13,0.62-0.13c0.83,0,1.5,0.67,1.5,1.5c0,0.61-0.36,1.13-0.88,1.37l-5.5,2.5v0C22,18.95,21.79,19,21.57,19
	c-0.83,0-1.5-0.67-1.5-1.5C20.06,16.89,20.43,16.37,20.94,16.13z M20.94,21.63L20.94,21.63l5.5-2.5l0,0
	c0.19-0.09,0.4-0.13,0.62-0.13c0.83,0,1.5,0.67,1.5,1.5c0,0.61-0.36,1.13-0.88,1.37l0,0l-5.5,2.5l0,0c-0.19,0.09-0.4,0.13-0.62,0.13
	c-0.83,0-1.5-0.67-1.5-1.5C20.06,22.39,20.43,21.87,20.94,21.63z M7.07,8C7.29,8,7.5,8.05,7.69,8.13l0,0l5.5,2.5l0,0
	c0.52,0.24,0.88,0.76,0.88,1.37c0,0.83-0.67,1.5-1.5,1.5c-0.22,0-0.43-0.05-0.62-0.13l0,0l-5.5-2.5l0,0
	c-0.52-0.24-0.88-0.76-0.88-1.37C5.56,8.67,6.24,8,7.07,8z M7.07,13.5c0.22,0,0.43,0.05,0.62,0.13l0,0l5.5,2.5l0,0
	c0.52,0.24,0.88,0.76,0.88,1.37c0,0.83-0.67,1.5-1.5,1.5c-0.22,0-0.43-0.05-0.62-0.13v0l-5.5-2.5l0,0C5.93,16.13,5.56,15.61,5.56,15
	C5.56,14.17,6.24,13.5,7.07,13.5z M7.07,19c0.22,0,0.43,0.05,0.62,0.13l0,0l5.5,2.5l0,0c0.52,0.24,0.88,0.76,0.88,1.37
	c0,0.83-0.67,1.5-1.5,1.5c-0.22,0-0.43-0.05-0.62-0.13l0,0l-5.5-2.5l0,0c-0.52-0.24-0.88-0.76-0.88-1.37C5.56,19.67,6.24,19,7.07,19
	z"/>
</svg>
