<?xml version="1.0" encoding="utf-8"?>
<!-- Generator: Adobe Illustrator 24.1.2, SVG Export Plug-In . SVG Version: 6.00 Build 0)  -->
<svg version="1.1" id="Layer_1" xmlns="http://www.w3.org/2000/svg" xmlns:xlink="http://www.w3.org/1999/xlink" x="0px" y="0px"
	 viewBox="0 0 34 32" style="enable-background:new 0 0 34 32;" xml:space="preserve">
<style type="text/css">
	.st0{fill-rule:evenodd;clip-rule:evenodd;fill:#95E1D3;}
</style>
<path class="st0" d="M31.8,10.01c-1.58-3.7-4.55-6.66-8.24-8.24c1-0.79,2.26-1.26,3.63-1.26c3.24,0,5.87,2.63,5.87,5.87
	C33.07,7.76,32.59,9.01,31.8,10.01z M31.57,16.51c0,3.85-1.51,7.34-3.96,9.94l2.03,2.03c0.27,0.27,0.43,0.64,0.43,1.05
	c0,0.82-0.66,1.48-1.48,1.48c-0.41,0-0.78-0.17-1.05-0.43l-2.18-2.18c-2.35,1.64-5.2,2.61-8.29,2.61c-3.08,0-5.93-0.97-8.28-2.6
	l-2.16,2.16c-0.27,0.27-0.65,0.44-1.06,0.44c-0.83,0-1.5-0.67-1.5-1.5c0-0.41,0.17-0.79,0.44-1.06l2.01-2.01
	c-2.44-2.6-3.95-6.08-3.95-9.93c0-8.01,6.49-14.5,14.5-14.5S31.57,8.5,31.57,16.51z M17.07,5.01c-6.35,0-11.5,5.15-11.5,11.5
	c0,6.35,5.15,11.5,11.5,11.5c6.35,0,11.5-5.15,11.5-11.5C28.56,10.16,23.42,5.01,17.07,5.01z M23.07,18.01h-6
	c-0.83,0-1.5-0.67-1.5-1.5v-8c0-0.83,0.67-1.5,1.5-1.5c0.83,0,1.5,0.67,1.5,1.5v6.5h4.5c0.83,0,1.5,0.67,1.5,1.5
	C24.57,17.34,23.89,18.01,23.07,18.01z M2.35,10.22C1.55,9.2,1.07,7.91,1.07,6.51c0-3.31,2.69-6,6-6c1.4,0,2.69,0.48,3.71,1.29
	C7,3.42,3.97,6.44,2.35,10.22z"/>
</svg>
