<?xml version="1.0" encoding="utf-8"?>
<!-- Generator: Adobe Illustrator 24.1.2, SVG Export Plug-In . SVG Version: 6.00 Build 0)  -->
<svg version="1.1" id="Layer_1" xmlns="http://www.w3.org/2000/svg" xmlns:xlink="http://www.w3.org/1999/xlink" x="0px" y="0px"
	 viewBox="0 0 34 32" style="enable-background:new 0 0 34 32;" xml:space="preserve">
<style type="text/css">
	.st0{fill-rule:evenodd;clip-rule:evenodd;fill:#95E1D3;}
</style>
<path class="st0" d="M31.07,25.24h-7.5h-2v2.5l2,2v0.5h-13v-0.5l2-2v-2.5h-2h-7.5c-0.83,0-1.5-0.67-1.5-1.5v-20
	c0-0.83,0.67-1.5,1.5-1.5h28c0.83,0,1.5,0.67,1.5,1.5v20C32.57,24.57,31.89,25.24,31.07,25.24z M30.57,4.24h-27v17h27V4.24z
	 M14.07,11.24c0.41,0,0.79,0.17,1.06,0.44l0,0l0.94,0.94L19,9.68l0,0c0.27-0.27,0.65-0.44,1.06-0.44c0.83,0,1.5,0.67,1.5,1.5
	c0,0.41-0.17,0.79-0.44,1.06l0,0l-4,4l0,0c-0.27,0.27-0.65,0.44-1.06,0.44c-0.41,0-0.79-0.17-1.06-0.44l0,0l-2-2l0,0
	c-0.27-0.27-0.44-0.65-0.44-1.06C12.57,11.91,13.24,11.24,14.07,11.24z"/>
</svg>
