<?xml version="1.0" encoding="utf-8"?>
<!-- Generator: Adobe Illustrator 24.1.2, SVG Export Plug-In . SVG Version: 6.00 Build 0)  -->
<svg version="1.1" id="Layer_1" xmlns="http://www.w3.org/2000/svg" xmlns:xlink="http://www.w3.org/1999/xlink" x="0px" y="0px"
	 viewBox="0 0 34 32" style="enable-background:new 0 0 34 32;" xml:space="preserve">
<style type="text/css">
	.st0{fill-rule:evenodd;clip-rule:evenodd;fill:#95E1D3;}
</style>
<path class="st0" d="M32.07,25c0,0.65-0.42,1.2-1,1.41v1.68c0.58,0.21,1,0.76,1,1.41c0,0.83-0.67,1.5-1.5,1.5
	c-0.65,0-1.2-0.42-1.41-1h-1.68c-0.21,0.58-0.76,1-1.41,1c-0.65,0-1.2-0.42-1.41-1h-1.68c-0.21,0.58-0.76,1-1.41,1
	c-0.65,0-1.2-0.42-1.41-1h-1.68c-0.21,0.58-0.76,1-1.41,1c-0.65,0-1.2-0.42-1.41-1h-1.68c-0.21,0.58-0.76,1-1.41,1
	c-0.65,0-1.2-0.42-1.41-1H9.47c-0.21,0.58-0.76,1-1.41,1c-0.65,0-1.2-0.42-1.41-1H4.97c-0.21,0.58-0.76,1-1.41,1
	c-0.83,0-1.5-0.67-1.5-1.5c0-0.65,0.42-1.2,1-1.41v-1.68c-0.58-0.21-1-0.76-1-1.41c0-0.65,0.42-1.2,1-1.41v-1.68
	c-0.58-0.21-1-0.76-1-1.41c0-0.65,0.42-1.2,1-1.41v-1.68c-0.58-0.21-1-0.76-1-1.41s0.42-1.2,1-1.41v-1.68c-0.58-0.21-1-0.76-1-1.41
	c0-0.65,0.42-1.2,1-1.41V8.41c-0.58-0.21-1-0.76-1-1.41c0-0.65,0.42-1.2,1-1.41V3.91c-0.58-0.21-1-0.76-1-1.41
	c0-0.83,0.67-1.5,1.5-1.5c0.65,0,1.2,0.42,1.41,1h1.68c0.21-0.58,0.76-1,1.41-1c0.65,0,1.2,0.42,1.41,1h1.68
	c0.21-0.58,0.76-1,1.41-1c0.65,0,1.2,0.42,1.41,1h1.68c0.21-0.58,0.76-1,1.41-1c0.65,0,1.2,0.42,1.41,1h1.68
	c0.21-0.58,0.76-1,1.41-1c0.65,0,1.2,0.42,1.41,1h1.68c0.21-0.58,0.76-1,1.41-1c0.65,0,1.2,0.42,1.41,1h1.68
	c0.21-0.58,0.76-1,1.41-1c0.83,0,1.5,0.67,1.5,1.5c0,0.65-0.42,1.2-1,1.41v1.69c0.58,0.21,1,0.76,1,1.41c0,0.65-0.42,1.2-1,1.41
	v1.68c0.58,0.21,1,0.76,1,1.41c0,0.65-0.42,1.2-1,1.41v1.68c0.58,0.21,1,0.76,1,1.41s-0.42,1.2-1,1.41v1.68c0.58,0.21,1,0.76,1,1.41
	c0,0.65-0.42,1.2-1,1.41v1.68C31.65,23.8,32.07,24.35,32.07,25z M28.07,5h-22v22h22V5z M15.06,21l7-8.5l4.5,7v6h-19l6-6L15.06,21z
	 M12.06,14c-1.66,0-3-1.34-3-3c0-1.66,1.34-3,3-3c1.66,0,3,1.34,3,3C15.06,12.66,13.72,14,12.06,14z"/>
</svg>
