<?xml version="1.0" encoding="utf-8"?>
<!-- Generator: Adobe Illustrator 24.1.2, SVG Export Plug-In . SVG Version: 6.00 Build 0)  -->
<svg version="1.1" id="Layer_1" xmlns="http://www.w3.org/2000/svg" xmlns:xlink="http://www.w3.org/1999/xlink" x="0px" y="0px"
	 viewBox="0 0 34 32" style="enable-background:new 0 0 34 32;" xml:space="preserve">
<style type="text/css">
	.st0{fill-rule:evenodd;clip-rule:evenodd;fill:#95E1D3;}
</style>
<path class="st0" d="M31.57,32h-29c-0.83,0-1.5-0.67-1.5-1.5v-29c0-0.83,0.67-1.5,1.5-1.5h29c0.83,0,1.5,0.67,1.5,1.5v29
	C33.07,31.33,32.39,32,31.57,32z M30.07,3h-26v26h26V3z M7.57,4.5h5.5h0c0.83,0,1.5,0.67,1.5,1.5s-0.67,1.5-1.5,1.5l0,0h-4.5V12l0,0
	c0,0.83-0.67,1.5-1.5,1.5c-0.83,0-1.5-0.67-1.5-1.5l0,0V6.5l0,0v-2H7.57L7.57,4.5z M5.57,20L5.57,20c0-0.83,0.67-1.5,1.5-1.5
	c0.83,0,1.5,0.67,1.5,1.5l0,0v4.5h4.5v0c0.83,0,1.5,0.67,1.5,1.5s-0.67,1.5-1.5,1.5h0h-5.5l0,0h-2v-2l0,0V20z M21.07,4.5L21.07,4.5
	h5.5l0,0h2v2l0,0V12l0,0c0,0.83-0.67,1.5-1.5,1.5c-0.83,0-1.5-0.67-1.5-1.5l0,0V7.5h-4.5l0,0c-0.83,0-1.5-0.67-1.5-1.5
	S20.24,4.5,21.07,4.5z M21.07,24.5L21.07,24.5l4.5,0V20l0,0c0-0.83,0.67-1.5,1.5-1.5c0.83,0,1.5,0.67,1.5,1.5l0,0v5.5l0,0v2h-2l0,0
	h-5.5h0c-0.83,0-1.5-0.67-1.5-1.5S20.24,24.5,21.07,24.5z"/>
</svg>
