<?xml version="1.0" encoding="utf-8"?>
<!-- Generator: Adobe Illustrator 24.1.2, SVG Export Plug-In . SVG Version: 6.00 Build 0)  -->
<svg version="1.1" id="Layer_1" xmlns="http://www.w3.org/2000/svg" xmlns:xlink="http://www.w3.org/1999/xlink" x="0px" y="0px"
	 viewBox="0 0 34 32" style="enable-background:new 0 0 34 32;" xml:space="preserve">
<style type="text/css">
	.st0{fill-rule:evenodd;clip-rule:evenodd;fill:#95E1D3;}
</style>
<path class="st0" d="M29.56,16.5h-3c-0.83,0-1.5-0.67-1.5-1.5V9c0-0.83,0.67-1.5,1.5-1.5h3c0.83,0,1.5,0.67,1.5,1.5v6
	C31.06,15.83,30.39,16.5,29.56,16.5z M26.56,1.5c0-0.83,0.67-1.5,1.5-1.5c0.83,0,1.5,0.67,1.5,1.5V6h-3V1.5z M18.56,24.5h-3
	c-0.83,0-1.5-0.67-1.5-1.5v-6c0-0.83,0.67-1.5,1.5-1.5h3c0.83,0,1.5,0.67,1.5,1.5v6C20.06,23.83,19.39,24.5,18.56,24.5z M15.56,1.5
	c0-0.83,0.67-1.5,1.5-1.5c0.83,0,1.5,0.67,1.5,1.5V14h-3V1.5z M7.56,20.5h-3c-0.83,0-1.5-0.67-1.5-1.5v-6c0-0.83,0.67-1.5,1.5-1.5h3
	c0.83,0,1.5,0.67,1.5,1.5v6C9.06,19.83,8.39,20.5,7.56,20.5z M4.56,1.5c0-0.83,0.67-1.5,1.5-1.5c0.83,0,1.5,0.67,1.5,1.5V10h-3V1.5z
	 M7.56,30.5c0,0.83-0.67,1.5-1.5,1.5c-0.83,0-1.5-0.67-1.5-1.5V22h3V30.5z M18.56,30.5c0,0.83-0.67,1.5-1.5,1.5
	c-0.83,0-1.5-0.67-1.5-1.5V26h3V30.5z M29.56,30.5c0,0.83-0.67,1.5-1.5,1.5c-0.83,0-1.5-0.67-1.5-1.5V18h3V30.5z"/>
</svg>
