<?xml version="1.0" encoding="utf-8"?>
<!-- Generator: Adobe Illustrator 24.1.2, SVG Export Plug-In . SVG Version: 6.00 Build 0)  -->
<svg version="1.1" id="Layer_1" xmlns="http://www.w3.org/2000/svg" xmlns:xlink="http://www.w3.org/1999/xlink" x="0px" y="0px"
	 viewBox="0 0 64 64" style="enable-background:new 0 0 64 64;" xml:space="preserve">
<style type="text/css">
	.st0{fill-rule:evenodd;clip-rule:evenodd;fill:#95E1D3;}
</style>
<path class="st0" d="M60.5,37.5h-0.9l0,0h-1.1v5l0,0c0,0.21-0.02,0.41-0.06,0.6c-0.03,0.14-0.08,0.26-0.12,0.39
	c-0.02,0.06-0.03,0.12-0.05,0.17c-0.05,0.12-0.11,0.22-0.18,0.33c-0.03,0.06-0.06,0.13-0.1,0.18c-0.1,0.14-0.21,0.28-0.33,0.4
	c-0.01,0.01-0.02,0.03-0.03,0.04c-0.53,0.54-1.27,0.87-2.08,0.88c-0.01,0-0.02,0-0.04,0l0,0l0,0c-0.83,0-1.58-0.33-2.12-0.88
	l-7.12-7.12H45.9l0,0H18.5c-1.66,0-3-1.34-3-3v-30c0-1.66,1.34-3,3-3h42c1.66,0,3,1.34,3,3v30C63.5,36.16,62.16,37.5,60.5,37.5z
	 M45.01,40.5l6.33,6.33l0.01-0.01c1.08,1.04,2.54,1.68,4.15,1.68v2c0,1.66-1.34,3-3,3l0,0H31.4l0,0h-6.9l0,0h-3l0,0h-0.76
	l-8.12,8.12c-0.54,0.54-1.29,0.88-2.12,0.88l0,0l0,0c-0.01,0-0.02,0-0.04,0c-0.81-0.01-1.55-0.34-2.08-0.87
	c-0.01-0.01-0.02-0.03-0.03-0.04c-0.12-0.12-0.24-0.26-0.33-0.4c-0.04-0.06-0.06-0.12-0.1-0.18c-0.06-0.11-0.13-0.21-0.18-0.33
	c-0.02-0.05-0.03-0.11-0.05-0.17c-0.05-0.13-0.09-0.26-0.12-0.39c-0.04-0.19-0.06-0.4-0.06-0.6l0,0v-6H7l0,0H3.5c-1.65,0-3-1.34-3-3
	v-34c0,0,0,0,0,0c0-1.66,1.34-3,3-3h9v21c0,3.31,2.69,6,6,6H45.01z"/>
</svg>
