<?xml version="1.0" encoding="utf-8"?>
<!-- Generator: Adobe Illustrator 24.1.2, SVG Export Plug-In . SVG Version: 6.00 Build 0)  -->
<svg version="1.1" id="Layer_1" xmlns="http://www.w3.org/2000/svg" xmlns:xlink="http://www.w3.org/1999/xlink" x="0px" y="0px"
	 viewBox="0 0 34 32" style="enable-background:new 0 0 34 32;" xml:space="preserve">
<style type="text/css">
	.st0{fill-rule:evenodd;clip-rule:evenodd;fill:#FFFFFF;}
</style>
<path class="st0" d="M32.07,25.24c0,0.65-0.42,1.2-1,1.41v1.68c0.58,0.21,1,0.76,1,1.41c0,0.83-0.67,1.5-1.5,1.5
	c-0.65,0-1.2-0.42-1.41-1h-1.68c-0.21,0.58-0.76,1-1.41,1s-1.2-0.42-1.41-1h-1.68c-0.21,0.58-0.76,1-1.41,1c-0.65,0-1.2-0.42-1.41-1
	h-1.68c-0.21,0.58-0.76,1-1.41,1c-0.65,0-1.2-0.42-1.41-1h-1.68c-0.21,0.58-0.76,1-1.41,1c-0.65,0-1.2-0.42-1.41-1H9.47
	c-0.21,0.58-0.76,1-1.41,1c-0.65,0-1.2-0.42-1.41-1H4.97c-0.21,0.58-0.76,1-1.41,1c-0.83,0-1.5-0.67-1.5-1.5c0-0.65,0.42-1.2,1-1.41
	v-1.68c-0.58-0.21-1-0.76-1-1.41s0.42-1.2,1-1.41v-1.68c-0.58-0.21-1-0.76-1-1.41c0-0.65,0.42-1.2,1-1.41v-1.68
	c-0.58-0.21-1-0.76-1-1.41c0-0.65,0.42-1.2,1-1.41v-1.68c-0.58-0.21-1-0.76-1-1.41c0-0.65,0.42-1.2,1-1.41V8.65
	c-0.58-0.21-1-0.76-1-1.41c0-0.65,0.42-1.2,1-1.41V4.15c-0.58-0.21-1-0.76-1-1.41c0-0.83,0.67-1.5,1.5-1.5c0.65,0,1.2,0.42,1.41,1
	h1.68c0.21-0.58,0.76-1,1.41-1c0.65,0,1.2,0.42,1.41,1h1.68c0.21-0.58,0.76-1,1.41-1c0.65,0,1.2,0.42,1.41,1h1.68
	c0.21-0.58,0.76-1,1.41-1c0.65,0,1.2,0.42,1.41,1h1.68c0.21-0.58,0.76-1,1.41-1c0.65,0,1.2,0.42,1.41,1h1.68
	c0.21-0.58,0.76-1,1.41-1s1.2,0.42,1.41,1h1.68c0.21-0.58,0.76-1,1.41-1c0.83,0,1.5,0.67,1.5,1.5c0,0.65-0.42,1.2-1,1.41v1.68
	c0.58,0.21,1,0.76,1,1.41c0,0.65-0.42,1.2-1,1.41v1.68c0.58,0.21,1,0.76,1,1.41c0,0.65-0.42,1.2-1,1.41v1.68
	c0.58,0.21,1,0.76,1,1.41c0,0.65-0.42,1.2-1,1.41v1.68c0.58,0.21,1,0.76,1,1.41c0,0.65-0.42,1.2-1,1.41v1.68
	C31.65,24.04,32.07,24.59,32.07,25.24z M28.07,5.24h-22v22h22V5.24z M15.07,21.24l7-8.5l4.5,7v6h-19l6-6L15.07,21.24z M12.07,14.24
	c-1.66,0-3-1.34-3-3c0-1.66,1.34-3,3-3c1.66,0,3,1.34,3,3C15.07,12.9,13.72,14.24,12.07,14.24z"/>
</svg>
